<?xml version="1.0" encoding="utf-8"?>
<!-- Generator: Adobe Illustrator 27.7.0, SVG Export Plug-In . SVG Version: 6.00 Build 0)  -->
<svg version="1.1" id="Layer_1" xmlns="http://www.w3.org/2000/svg" xmlns:xlink="http://www.w3.org/1999/xlink" x="0px" y="0px"
	 viewBox="0 0 512 512" style="enable-background:new 0 0 512 512;" xml:space="preserve">
<style type="text/css">
	.st0{fill:#EBBB1E;}
	.st1{fill:#8AADDB;}
</style>
<g>
	<path class="st0" d="M104.75,373.5c0,2.32-1.04,4.46-3.11,6.41c-2.08,1.95-4.33,2.93-6.77,2.93c-5.86,0-14.65,0.06-26.37,0.18
		c-11.72,0.12-20.51,0.18-26.37,0.18c-4.52,0-6.71-1.95-6.59-5.86l0.18-2.01c1.71-46.63,2.56-74.89,2.56-84.78v-54.38
		c0-3.42-0.8-5.13-2.38-5.13c-2.44,0-6.13,0.73-11.08,2.2c-4.94,1.46-8.7,2.2-11.26,2.2c-3.79,0-5.68-2.26-5.68-6.77
		c0-4.15-0.06-10.37-0.18-18.68c-0.12-8.3-0.18-14.59-0.18-18.86c0-2.44,1.52-4.27,4.58-5.49c17.94-7.44,32.04-17.46,42.3-30.03
		c2.07-2.56,3.85-3.85,5.31-3.85c0.24,0,0.98,0.12,2.2,0.37c4.64,0.98,11.54,2.5,20.69,4.58c4.88,0.61,12.02,1.71,21.42,3.3
		c1.71,0.49,2.56,1.83,2.56,4.03c0,0.73-0.12,2.01-0.37,3.85c-1.34,10.74-2.01,37.05-2.01,78.92c0,14.04,0.09,35.16,0.27,63.35
		C104.66,338.34,104.75,359.46,104.75,373.5z"/>
	<path class="st0" d="M316.79,330.65c0,2.81-0.31,7.02-0.92,12.63c-0.61,5.62-0.92,9.89-0.92,12.82s-0.06,7.54-0.18,13.82
		c-0.12,6.29-0.18,10.96-0.18,14.01s-2.01,4.58-6.04,4.58c-1.46,0-7.2-1.16-17.21-3.48c-11.11-2.44-31.86-3.66-62.26-3.66
		c-9.4,0-23.5,0.52-42.3,1.56c-18.8,1.04-32.78,1.56-41.93,1.56c-3.18,0-4.94-1.53-5.31-4.58c-0.37-4.15-1.28-10.31-2.75-18.49
		c-3.05-12.45-4.58-19.59-4.58-21.42c0-2.68,5.13-4.7,15.38-6.04c11.96-1.58,19.65-3.78,23.07-6.59
		c12.33-10.37,24.96-23.5,37.9-39.37c16.48-20.02,24.72-35.03,24.72-45.04c0-8.67-3.14-15.96-9.43-21.88
		c-6.29-5.92-13.76-8.88-22.43-8.88c-9.77,0-19.47,1.95-29.11,5.86c-6.47,2.44-13.25,5.98-20.33,10.62
		c-5.98,3.79-9.28,5.68-9.89,5.68c-4.15,0-6.23-4.88-6.23-14.65c0-7.57-0.31-13.06-0.92-16.48c-0.25-1.58-1.16-4.88-2.75-9.89
		c-1.46-4.27-2.2-7.44-2.2-9.52c0-1.58,1.04-3.11,3.11-4.58c10.13-7.2,23.68-12.88,40.65-17.03c15.13-3.66,29.85-5.49,44.13-5.49
		c23.19,0,42.6,5.13,58.23,15.38c18.43,11.96,27.65,28.99,27.65,51.09c0,29.42-22.28,63.78-66.83,103.09
		c31.61-1.58,56.4-2.38,74.34-2.38C314.96,323.88,316.79,326.14,316.79,330.65z"/>
	<path class="st1" d="M496.6,320.22c0,22.58-9.34,39.98-28.02,52.18c-15.87,10.5-35.71,15.75-59.51,15.75
		c-18.31,0-33.39-1.28-45.23-3.84c-25.76-5.37-38.63-10.13-38.63-14.28c0-0.73,0.24-1.83,0.73-3.3c1.71-4.51,4.21-11.29,7.51-20.33
		c0.98-4.51,2.68-11.23,5.13-20.14c1.1-3.05,2.93-4.58,5.49-4.58c-0.37,0,5.1,2.01,16.39,6.04c11.29,4.03,20.54,6.04,27.74,6.04
		c23.92,0,35.89-7.99,35.89-23.99c0-12.82-11.35-19.23-34.06-19.23c-3.05,0-7.08,0.12-12.08,0.37c-5.01,0.25-8.3,0.37-9.89,0.37
		c-7.45,0-11.54-0.06-12.27-0.18c-5.37-0.61-8.06-2.68-8.06-6.23c0-18.68,0.73-30.4,2.2-35.16c0.98-3.05,2.93-4.58,5.86-4.58
		c4.15,0,10.28,0.52,18.4,1.56c8.12,1.04,14.19,1.56,18.22,1.56c5.25,0,9.61-1.74,13.09-5.22c3.48-3.48,5.22-7.9,5.22-13.28
		c0-14.4-10.5-21.61-31.49-21.61c-8.79,0-20.69,2.38-35.71,7.14c-0.61,0.12-1.16,0.18-1.65,0.18c-1.59,0-2.93-1.71-4.03-5.13
		c-0.25-5.13-0.61-10.99-1.1-17.58c-0.12-1.46-0.49-4.39-1.1-8.79c-0.49-3.54-0.73-6.41-0.73-8.61c0-6.47,10.01-11.47,30.03-15.01
		c13.79-2.44,27.16-3.66,40.1-3.66c20.75,0,38.94,4.58,54.56,13.73c18.92,10.99,28.38,26.18,28.38,45.59
		c0,22.34-10.13,39.31-30.4,50.9c11.96,4.03,21.45,10.8,28.47,20.33C493.08,296.78,496.6,307.76,496.6,320.22z"/>
</g>
</svg>
